<?xml version="1.0" encoding="UTF-8"?>
<svg xmlns="http://www.w3.org/2000/svg" xmlns:xlink="http://www.w3.org/1999/xlink" width="1920" height="1080" viewBox="0 0 1920 1080">
<defs>
<g>
<g id="glyph-0-0">
<path d="M 4.433594 -0.28125 C 4.152344 -0.164062 3.882812 -0.0625 3.632812 0.015625 C 3.382812 0.0976562 3.074219 0.136719 2.707031 0.136719 C 2.171875 0.136719 1.792969 0 1.570312 -0.269531 C 1.351562 -0.542969 1.242188 -0.925781 1.242188 -1.417969 L 1.242188 -5.769531 L 0.0859375 -5.769531 L 0.0859375 -6.394531 L 1.269531 -6.394531 L 1.269531 -8.390625 L 2.453125 -8.390625 L 2.453125 -6.394531 L 4.296875 -6.394531 L 4.296875 -5.769531 L 2.46875 -5.769531 L 2.46875 -2.179688 C 2.46875 -1.910156 2.476562 -1.6875 2.496094 -1.507812 C 2.515625 -1.328125 2.5625 -1.167969 2.636719 -1.035156 C 2.707031 -0.910156 2.808594 -0.8125 2.949219 -0.75 C 3.089844 -0.683594 3.273438 -0.652344 3.507812 -0.652344 C 3.617188 -0.652344 3.777344 -0.660156 3.988281 -0.679688 C 4.199219 -0.699219 4.347656 -0.726562 4.433594 -0.753906 Z "/>
</g>
<g id="glyph-0-1">
<path d="M 3.582031 0 L 0.480469 0 L 0.480469 -0.429688 C 0.582031 -0.4375 0.683594 -0.445312 0.789062 -0.457031 C 0.898438 -0.464844 0.988281 -0.480469 1.066406 -0.507812 C 1.1875 -0.546875 1.277344 -0.613281 1.335938 -0.710938 C 1.394531 -0.808594 1.425781 -0.9375 1.425781 -1.09375 L 1.425781 -5.054688 C 1.425781 -5.191406 1.394531 -5.320312 1.332031 -5.433594 C 1.269531 -5.546875 1.179688 -5.644531 1.066406 -5.722656 C 0.984375 -5.773438 0.867188 -5.820312 0.710938 -5.855469 C 0.554688 -5.894531 0.410156 -5.914062 0.28125 -5.925781 L 0.28125 -6.355469 L 2.546875 -6.496094 L 2.636719 -6.40625 L 2.636719 -1.171875 C 2.636719 -1.019531 2.664062 -0.894531 2.722656 -0.792969 C 2.78125 -0.695312 2.875 -0.621094 3 -0.574219 C 3.09375 -0.535156 3.1875 -0.503906 3.277344 -0.476562 C 3.367188 -0.453125 3.46875 -0.4375 3.582031 -0.429688 L 3.582031 0 M 2.765625 -9.03125 C 2.765625 -8.78125 2.683594 -8.566406 2.523438 -8.382812 C 2.359375 -8.199219 2.160156 -8.105469 1.921875 -8.105469 C 1.699219 -8.105469 1.507812 -8.195312 1.34375 -8.367188 C 1.179688 -8.546875 1.101562 -8.746094 1.101562 -8.972656 C 1.101562 -9.210938 1.179688 -9.417969 1.34375 -9.597656 C 1.507812 -9.773438 1.699219 -9.863281 1.921875 -9.863281 C 2.167969 -9.863281 2.371094 -9.78125 2.527344 -9.613281 C 2.6875 -9.445312 2.765625 -9.25 2.765625 -9.03125 Z "/>
</g>
<g id="glyph-0-2">
<path d="M 11.453125 0 L 8.328125 0 L 8.328125 -0.429688 C 8.425781 -0.4375 8.527344 -0.445312 8.628906 -0.457031 C 8.730469 -0.464844 8.820312 -0.480469 8.898438 -0.507812 C 9.019531 -0.546875 9.109375 -0.617188 9.171875 -0.710938 C 9.226562 -0.808594 9.257812 -0.9375 9.257812 -1.09375 L 9.257812 -4.40625 C 9.257812 -4.859375 9.15625 -5.207031 8.949219 -5.453125 C 8.742188 -5.699219 8.484375 -5.820312 8.175781 -5.820312 C 7.964844 -5.820312 7.765625 -5.789062 7.578125 -5.722656 C 7.390625 -5.65625 7.21875 -5.566406 7.0625 -5.449219 C 6.9375 -5.355469 6.832031 -5.25 6.746094 -5.140625 C 6.664062 -5.027344 6.597656 -4.9375 6.554688 -4.863281 L 6.554688 -1.160156 C 6.554688 -1.007812 6.582031 -0.882812 6.632812 -0.785156 C 6.6875 -0.6875 6.773438 -0.613281 6.902344 -0.558594 C 7 -0.519531 7.089844 -0.492188 7.171875 -0.472656 C 7.25 -0.453125 7.355469 -0.4375 7.488281 -0.429688 L 7.488281 0 L 4.425781 0 L 4.425781 -0.429688 C 4.527344 -0.4375 4.625 -0.445312 4.71875 -0.457031 C 4.808594 -0.464844 4.894531 -0.480469 4.972656 -0.507812 C 5.09375 -0.546875 5.183594 -0.617188 5.242188 -0.710938 C 5.300781 -0.808594 5.332031 -0.9375 5.332031 -1.09375 L 5.332031 -4.40625 C 5.332031 -4.859375 5.230469 -5.207031 5.023438 -5.453125 C 4.816406 -5.699219 4.558594 -5.820312 4.25 -5.820312 C 4.035156 -5.820312 3.835938 -5.785156 3.648438 -5.71875 C 3.460938 -5.652344 3.289062 -5.558594 3.132812 -5.441406 C 3.007812 -5.347656 2.898438 -5.238281 2.8125 -5.121094 C 2.726562 -5 2.660156 -4.910156 2.617188 -4.851562 L 2.617188 -1.171875 C 2.617188 -1.023438 2.648438 -0.902344 2.707031 -0.800781 C 2.769531 -0.699219 2.859375 -0.625 2.980469 -0.574219 C 3.074219 -0.53125 3.167969 -0.496094 3.261719 -0.476562 C 3.355469 -0.453125 3.464844 -0.4375 3.582031 -0.429688 L 3.582031 0 L 0.460938 0 L 0.460938 -0.429688 C 0.5625 -0.4375 0.664062 -0.445312 0.769531 -0.457031 C 0.878906 -0.464844 0.96875 -0.480469 1.046875 -0.507812 C 1.167969 -0.546875 1.257812 -0.613281 1.316406 -0.710938 C 1.375 -0.808594 1.40625 -0.9375 1.40625 -1.09375 L 1.40625 -5.078125 C 1.40625 -5.21875 1.375 -5.34375 1.3125 -5.453125 C 1.25 -5.5625 1.160156 -5.65625 1.046875 -5.734375 C 0.964844 -5.789062 0.863281 -5.832031 0.742188 -5.863281 C 0.621094 -5.894531 0.496094 -5.914062 0.363281 -5.925781 L 0.363281 -6.355469 L 2.511719 -6.496094 L 2.605469 -6.40625 L 2.605469 -5.488281 L 2.648438 -5.488281 C 2.757812 -5.597656 2.890625 -5.726562 3.046875 -5.871094 C 3.203125 -6.019531 3.347656 -6.140625 3.484375 -6.230469 C 3.636719 -6.335938 3.824219 -6.421875 4.054688 -6.492188 C 4.28125 -6.558594 4.527344 -6.59375 4.792969 -6.59375 C 5.207031 -6.59375 5.566406 -6.484375 5.867188 -6.257812 C 6.164062 -6.035156 6.378906 -5.765625 6.511719 -5.449219 C 6.667969 -5.601562 6.804688 -5.734375 6.921875 -5.847656 C 7.042969 -5.964844 7.199219 -6.085938 7.394531 -6.21875 C 7.558594 -6.332031 7.753906 -6.421875 7.976562 -6.492188 C 8.199219 -6.558594 8.449219 -6.59375 8.71875 -6.59375 C 9.261719 -6.59375 9.691406 -6.417969 10.007812 -6.0625 C 10.324219 -5.707031 10.480469 -5.160156 10.480469 -4.421875 L 10.480469 -1.160156 C 10.480469 -1.007812 10.507812 -0.882812 10.558594 -0.785156 C 10.613281 -0.6875 10.699219 -0.613281 10.828125 -0.558594 C 10.925781 -0.519531 11.023438 -0.492188 11.121094 -0.472656 C 11.21875 -0.453125 11.332031 -0.4375 11.453125 -0.429688 Z "/>
</g>
<g id="glyph-0-3">
<path d="M 6.171875 -1.511719 C 5.902344 -1 5.542969 -0.589844 5.089844 -0.285156 C 4.640625 0.015625 4.121094 0.167969 3.535156 0.167969 C 3.019531 0.167969 2.566406 0.078125 2.179688 -0.105469 C 1.789062 -0.285156 1.46875 -0.535156 1.21875 -0.847656 C 0.964844 -1.160156 0.777344 -1.523438 0.652344 -1.941406 C 0.53125 -2.355469 0.46875 -2.796875 0.46875 -3.261719 C 0.46875 -3.679688 0.535156 -4.085938 0.667969 -4.488281 C 0.800781 -4.890625 0.992188 -5.25 1.25 -5.574219 C 1.496094 -5.882812 1.804688 -6.128906 2.171875 -6.316406 C 2.539062 -6.507812 2.949219 -6.601562 3.40625 -6.601562 C 3.875 -6.601562 4.273438 -6.527344 4.609375 -6.378906 C 4.945312 -6.234375 5.214844 -6.03125 5.421875 -5.773438 C 5.621094 -5.53125 5.769531 -5.246094 5.867188 -4.914062 C 5.964844 -4.585938 6.015625 -4.226562 6.015625 -3.839844 L 6.015625 -3.410156 L 1.765625 -3.410156 C 1.765625 -2.988281 1.804688 -2.605469 1.882812 -2.261719 C 1.964844 -1.917969 2.09375 -1.617188 2.265625 -1.355469 C 2.433594 -1.105469 2.65625 -0.90625 2.929688 -0.757812 C 3.203125 -0.613281 3.527344 -0.539062 3.90625 -0.539062 C 4.292969 -0.539062 4.625 -0.632812 4.90625 -0.8125 C 5.183594 -0.992188 5.457031 -1.320312 5.714844 -1.789062 L 6.171875 -1.511719 M 4.734375 -3.957031 C 4.734375 -4.199219 4.710938 -4.460938 4.671875 -4.738281 C 4.628906 -5.015625 4.5625 -5.246094 4.472656 -5.433594 C 4.371094 -5.628906 4.234375 -5.792969 4.0625 -5.917969 C 3.890625 -6.042969 3.664062 -6.105469 3.390625 -6.105469 C 2.9375 -6.105469 2.558594 -5.917969 2.257812 -5.539062 C 1.953125 -5.160156 1.789062 -4.632812 1.765625 -3.957031 Z "/>
</g>
<g id="glyph-0-4">
</g>
<g id="glyph-0-5">
<path d="M 7.570312 -4.445312 L 1.003906 -4.445312 L 1.003906 -5.261719 L 7.570312 -5.261719 L 7.570312 -4.445312 M 7.570312 -2.023438 L 1.003906 -2.023438 L 1.003906 -2.839844 L 7.570312 -2.839844 Z "/>
</g>
</g>
</defs>
<g fill="rgb(100%, 100%, 100%)" fill-opacity="1">
<use xlink:href="#glyph-0-0" x="30" y="32.226562"/>
<use xlink:href="#glyph-0-1" x="35" y="32.226562"/>
<use xlink:href="#glyph-0-2" x="39" y="32.226562"/>
<use xlink:href="#glyph-0-3" x="51" y="32.226562"/>
<use xlink:href="#glyph-0-4" x="57" y="32.226562"/>
<use xlink:href="#glyph-0-5" x="60" y="32.226562"/>
<use xlink:href="#glyph-0-4" x="69" y="32.226562"/>
</g>
</svg>
